<svg xmlns="http://www.w3.org/2000/svg" width="24" height="24" viewBox="0 0 24 24" fill="none">
  <path d="M18.0896 6.99719C18.4449 7.77879 19.5551 7.77879 19.9104 6.99719L20.0948 6.59139C20.1949 6.37128 20.3713 6.19487 20.5914 6.09482L20.9972 5.91037C21.7788 5.5551 21.7788 4.4449 20.9972 4.08963L20.5914 3.90518C20.3713 3.80513 20.1949 3.62872 20.0948 3.40861L19.9104 3.00281C19.5551 2.22121 18.4449 2.22121 18.0896 3.00281L17.9052 3.40861C17.8051 3.62872 17.6287 3.80513 17.4086 3.90518L17.0028 4.08963C16.2212 4.4449 16.2212 5.5551 17.0028 5.91037L17.4086 6.09482C17.6287 6.19487 17.8051 6.37128 17.9052 6.59139L18.0896 6.99719Z" fill="white"/>
  <path d="M19.9104 17.0028C19.5551 16.2212 18.4449 16.2212 18.0896 17.0028L17.9052 17.4086C17.8051 17.6287 17.6287 17.8051 17.4086 17.9052L17.0028 18.0896C16.2212 18.4449 16.2212 19.5551 17.0028 19.9104L17.4086 20.0948C17.6287 20.1949 17.8051 20.3713 17.9052 20.5914L18.0896 20.9972C18.4449 21.7788 19.5551 21.7788 19.9104 20.9972L20.0948 20.5914C20.1949 20.3713 20.3713 20.1949 20.5914 20.0948L20.9972 19.9104C21.7788 19.5551 21.7788 18.4449 20.9972 18.0896L20.5914 17.9052C20.3713 17.8051 20.1949 17.6287 20.0948 17.4086L19.9104 17.0028Z" fill="white"/>
  <path d="M11.8414 9.65518C11.6213 9.55513 11.4449 9.37872 11.3448 9.15861L9.91037 6.00281C9.5551 5.22121 8.4449 5.22121 8.08963 6.00281L6.65518 9.15861C6.55513 9.37872 6.37872 9.55513 6.15861 9.65518L3.00281 11.0896C2.22121 11.4449 2.22121 12.5551 3.00281 12.9104L6.15861 14.3448C6.37872 14.4449 6.55513 14.6213 6.65518 14.8414L8.08963 17.9972C8.4449 18.7788 9.5551 18.7788 9.91037 17.9972L11.3448 14.8414C11.4449 14.6213 11.6213 14.4449 11.8414 14.3448L14.9972 12.9104C15.7788 12.5551 15.7788 11.4449 14.9972 11.0896L11.8414 9.65518ZM10.3075 12.8458C10.1028 12.9388 9.93877 13.1028 9.84581 13.3075C9.51591 14.034 8.48409 14.034 8.15419 13.3075C8.06123 13.1028 7.89719 12.9388 7.69249 12.8458C6.96604 12.5159 6.96604 11.4841 7.69249 11.1542C7.89719 11.0612 8.06123 10.8972 8.15419 10.6925C8.48409 9.96604 9.51591 9.96604 9.84581 10.6925C9.93877 10.8972 10.1028 11.0612 10.3075 11.1542C11.034 11.4841 11.034 12.5159 10.3075 12.8458Z" fill="white"/>
</svg>